#N canvas 66 162 1286 693 10;
#X obj 69 -59 f;
#X msg 69 -12 0 \$1;
#X msg 116 12 stop;
#X obj 68 148 outlet~;
#X floatatom 69 -34 10 0 0 0 - - -;
#X obj 69 -106 bng 15 250 50 0 empty empty empty 17 7 0 10 -262144
-1 -1;
#X obj 69 -133 r Play\$0;
#X obj 84 -84 r LoopLength\$0;
#X obj 116 -12 r StopPlayLoop\$0;
#X obj 150 67 s PlayLoop\$0;
#X obj 318 -39 bng 15 250 50 0 empty empty empty 17 7 0 10 -262144
-1 -1;
#X obj 489 71 tgl 15 0 empty empty empty 17 7 0 10 -262144 -1 -1 1
1;
#X obj 318 86 spigot;
#X obj 456 -24 spigot;
#X obj 489 109 == 0;
#X text 324 -105 LOOPER;
#X msg 489 39 0;
#X obj 318 -73 r PlayLoop\$0;
#X obj 318 22 r PlayOnce\$0;
#X obj 489 4 r StopPlayLoopSync\$0;
#X obj 318 110 s Play\$0;
#X obj 525 54 loadbang;
#X obj 136 -226 inlet;
#X text 44 -241 Audio In;
#X obj 269 -226 inlet;
#X obj 456 -226 inlet;
#X text 454 -242 play loop from beginning;
#X obj 136 -201 bng 15 250 50 0 empty empty empty 17 7 0 10 -262144
-1 -1;
#X obj 269 -201 bng 15 250 50 0 empty empty empty 17 7 0 10 -262144
-1 -1;
#X obj 456 -201 bng 15 250 50 0 empty empty empty 17 7 0 10 -262144
-1 -1;
#X obj 136 -177 s StopPlayLoop\$0;
#X obj 269 -177 s StopPlayLoopSync\$0;
#X obj 456 -177 s PlayLoop\$0;
#X text 135 -242 stop now;
#X text 267 -242 stop at the end of loop;
#X obj 678 -103 openpanel;
#X obj 678 -122 bng 15 250 50 0 empty empty empty 0 -6 0 8 -262144
-1 -1;
#X obj 678 -59 soundfiler;
#X obj 57 258 dac~ 1 2;
#X obj 678 -27 / 44100;
#X floatatom 678 -2 10 0 0 0 - - -;
#X obj 663 50 *;
#X obj 538 288 hsl 128 15 0 1 0 0 empty empty empty -2 -8 0 10 -262144
-1 -1 0 0;
#X floatatom 663 72 5 0 0 0 - - -;
#X obj 663 92 * 44100;
#X obj 750 -42 s LoopLength\$0;
#X obj 752 229 counter 0;
#X obj 752 179 tgl 15 0 empty empty empty 17 7 0 10 -262144 -1 -1 0
1;
#X floatatom 752 254 10 0 0 0 - - -;
#X obj 777 174 bng 15 250 50 0 empty empty reset 17 7 0 10 -262144
-1 -1;
#X msg 752 156 1;
#X obj 752 275 / 149.188;
#X floatatom 753 296 5 0 0 0 - - -;
#X obj 538 312 hsl 128 15 0 1 0 0 empty empty empty -2 -8 0 10 -262144
-1 -1 0 1;
#X msg 724 162 0;
#X obj 621 145 r StopPlayLoop\$0;
#X obj 724 111 r PlayLoop\$0;
#X obj 807 118 r Play\$0;
#X obj 752 135 t b b;
#X obj 153 27 r goto\$0;
#X obj 663 119 s goto\$0;
#X floatatom 569 334 5 0 0 0 - - -;
#X obj 480 347 spigot;
#X obj 513 326 tgl 15 0 empty empty empty 17 7 0 10 -262144 -1 -1 0
1;
#X msg 569 359 set \$1;
#X msg 480 376 0.558583;
#X obj 451 274 t b b b;
#X msg 420 309 0;
#X msg 470 309 1;
#X obj 451 252 bng 15 250 50 0 empty empty play/pause 17 7 0 10 -262144
-1 -1;
#X obj 843 139 r goto\$0;
#X obj 420 291 del 10;
#X obj 803 14 * 1000;
#X obj 831 270 / 1000;
#X floatatom 831 314 5 0 0 0 - - -;
#X obj 752 201 metro 1;
#X obj 831 292 int;
#X obj 663 212 * 1000;
#X obj 623 -201 bng 15 250 50 0 empty empty play/pause 17 7 0 10 -262144
-1 -1;
#X obj 623 -227 inlet;
#X obj 451 225 r playpause\$0;
#X obj 623 -178 s playpause\$0;
#X text 620 -245 play from stop point;
#X obj 915 271 inlet set to;
#X obj 69 44 tabplay~ sam\$0;
#X msg 15 6 set sam2\$0;
#X msg 908 -33 set open \$1;
#X msg 909 15 open /Volumes/LaCie/PROJETS/Buffalo-Boy/Bboy/dead-man.aiff
;
#X obj 933 -172 table sam2 2.88e+06;
#X msg 678 -82 read -resize \$1 sam;
#X obj 932 -193 table sam 2.88e+06;
#X msg 807 -99 open /Volumes/LaCie/PROJETS/Buffalo-Boy/Bboy/appaloosa.aiff
;
#X msg 808 -76 read -resize \$1 sam2;
#X obj 1015 -66 openpanel;
#X obj 1114 -75 bng 15 250 50 0 empty empty empty 17 7 0 10 -262144
-1 -1;
#X msg 808 -141 open /Volumes/LaCie/PROJETS/Buffalo-Boy/Bboy/dead-man.aiff
;
#X connect 0 0 4 0;
#X connect 1 0 84 0;
#X connect 2 0 84 0;
#X connect 4 0 1 0;
#X connect 5 0 0 0;
#X connect 6 0 5 0;
#X connect 7 0 0 1;
#X connect 8 0 2 0;
#X connect 10 0 12 0;
#X connect 10 0 13 0;
#X connect 11 0 12 1;
#X connect 11 0 14 0;
#X connect 12 0 20 0;
#X connect 13 0 11 0;
#X connect 14 0 13 1;
#X connect 16 0 11 0;
#X connect 17 0 10 0;
#X connect 18 0 16 0;
#X connect 18 0 20 0;
#X connect 19 0 16 0;
#X connect 21 0 11 0;
#X connect 22 0 27 0;
#X connect 24 0 28 0;
#X connect 25 0 29 0;
#X connect 27 0 30 0;
#X connect 28 0 31 0;
#X connect 29 0 32 0;
#X connect 35 0 89 0;
#X connect 36 0 35 0;
#X connect 37 0 45 0;
#X connect 37 0 39 0;
#X connect 39 0 40 0;
#X connect 40 0 41 1;
#X connect 40 0 72 0;
#X connect 41 0 43 0;
#X connect 42 0 41 0;
#X connect 43 0 44 0;
#X connect 43 0 77 0;
#X connect 44 0 60 0;
#X connect 46 0 48 0;
#X connect 47 0 75 0;
#X connect 48 0 51 0;
#X connect 48 0 73 0;
#X connect 49 0 46 2;
#X connect 50 0 47 0;
#X connect 51 0 52 0;
#X connect 52 0 53 0;
#X connect 53 0 61 0;
#X connect 54 0 47 0;
#X connect 55 0 54 0;
#X connect 56 0 54 0;
#X connect 57 0 58 0;
#X connect 58 0 50 0;
#X connect 58 1 49 0;
#X connect 59 0 84 0;
#X connect 61 0 64 0;
#X connect 62 0 42 0;
#X connect 63 0 62 1;
#X connect 64 0 65 0;
#X connect 65 0 62 0;
#X connect 66 0 65 0;
#X connect 66 1 68 0;
#X connect 66 2 71 0;
#X connect 67 0 63 0;
#X connect 68 0 63 0;
#X connect 69 0 66 0;
#X connect 70 0 50 0;
#X connect 71 0 67 0;
#X connect 72 0 46 4;
#X connect 72 0 51 1;
#X connect 73 0 76 0;
#X connect 75 0 46 0;
#X connect 76 0 74 0;
#X connect 77 0 46 3;
#X connect 78 0 81 0;
#X connect 79 0 78 0;
#X connect 80 0 69 0;
#X connect 83 0 42 0;
#X connect 84 0 3 0;
#X connect 84 0 38 1;
#X connect 84 0 38 0;
#X connect 84 1 9 0;
#X connect 85 0 84 0;
#X connect 86 0 87 0;
#X connect 89 0 37 0;
#X connect 91 0 89 0;
#X connect 92 0 37 0;
#X connect 93 0 86 0;
#X connect 94 0 93 0;
#X connect 95 0 92 0;
