#N canvas 71 36 1222 612 10;
#X declare -lib mrpeach;
#X obj 5 2 import mrpeach;
#X obj 23 149 packOSC;
#X obj 23 187 udpsend;
#X msg 92 170 disconnect;
#X obj 23 222 tgl 15 0 empty empty 1=connected 20 8 0 8 -4034 -257985
-1 0 1;
#X msg 62 127 [;
#X msg 23 127 ];
#X obj 23 103 t b a b;
#X msg 21 87 sendtyped /servo ii \$1 \$2;
#X msg 21 65 1 \$1;
#X obj 21 22 r A1;
#X obj 133 259 s A1;
#X obj 21 45 line;
#X floatatom 64 62 5 0 0 0 - - -;
#X obj 136 236 hsl 128 15 1200 1700 0 0 empty empty empty -2 -8 0 10
-262144 -1 -1 0 1;
#X obj 668 421 dac~ 1 11 12 13 14 15 16 17 18;
#X obj 605 359 vsl 15 40 0 1 0 0 empty empty FACE 0 -9 0 10 -262144
-1 -1 0 1;
#X obj 604 403 *~;
#X obj 633 359 vsl 15 40 0 1 0 0 empty empty empty 0 -9 0 10 -262144
-1 -1 0 1;
#X obj 629 404 *~;
#X obj 704 357 vsl 15 40 0 1 0 0 empty empty LOINTAIN 0 -9 0 10 -262144
-1 -1 0 1;
#X obj 689 402 *~;
#X obj 731 357 vsl 15 40 0 1 0 0 empty empty empty 0 -9 0 10 -262144
-1 -1 0 1;
#X obj 716 403 *~;
#X obj 801 359 vsl 15 40 0 1 0 0 empty empty SUBS 0 -9 0 10 -262144
-1 -1 0 1;
#X obj 786 404 *~;
#X obj 829 359 vsl 15 40 0 1 0 0 empty empty empty 0 -9 0 10 -262144
-1 -1 0 1;
#X obj 814 404 *~;
#X obj 885 359 vsl 15 40 0 1 0 0 empty empty SALLE 0 -9 0 10 -262144
-1 -1 0 1;
#X obj 870 404 *~;
#X obj 912 359 vsl 15 40 0 1 0 0 empty empty empty 0 -9 0 10 -262144
-1 -1 0 1;
#X obj 897 404 *~;
#X obj 751 166 vsl 15 40 0 0.2 0 0 empty empty empty 0 -9 0 10 -262144
-1 -1 0 1;
#X obj 736 212 *~;
#X obj 539 29 adc~ 2;
#X obj 484 29 adc~ 1;
#X msg 133 209 1480;
#X msg 286 211 1530;
#X msg 216 209 1400;
#X msg 174 176 1430;
#X msg 288 176 1500;
#X obj 317 74 cycle 2;
#X msg 317 49 reset;
#X msg 330 207 1540;
#X msg 356 104 1400;
#X obj 278 19 tgl 15 0 empty empty empty 17 7 0 10 -262144 -1 -1 0
1;
#X obj 312 17 metro 1500;
#X msg 317 103 1520;
#X msg 402 48 reset;
#X obj 397 16 metro 1500;
#X obj 459 46 tgl 15 0 empty empty empty 17 7 0 10 -262144 -1 -1 0
1;
#X msg 478 56 0;
#X obj 514 113 t b b;
#X obj 557 70 bng 15 250 50 0 empty empty empty 17 7 0 10 -262144 -1
-1;
#X msg 480 90 1480;
#X obj 402 73 cycle 5;
#X obj 736 141 adc~ 1;
#X obj 535 357 vsl 15 40 0 1 0 0 empty empty BUFFALO 0 -9 0 10 -262144
-1 -1 0 1;
#X obj 535 404 *~;
#X msg 220 122 1440;
#X msg 402 102 1540;
#X msg 626 29 1200;
#X msg 441 103 1425;
#X obj 512 150 tgl 15 0 empty empty empty 17 7 0 10 -262144 -1 -1 0
1;
#X obj 513 169 metro 1500;
#X msg 455 256 1480;
#X msg 383 275 1435;
#X msg 599 172 1000;
#X obj 390 229 t b b;
#X msg 513 188 reset;
#X obj 513 208 cycle 2;
#X obj 442 228 del 800;
#X obj 303 361 freeverb~;
#X msg 689 168 0;
#X obj 661 145 t b b;
#X msg 664 204 1400;
#X obj 662 123 bng 15 250 50 0 empty empty empty 17 7 0 10 -262144
-1 -1;
#X msg 92 147 connect 192.168.1.100 8888;
#X msg 416 255 1425;
#X msg 601 254 1410;
#X msg 263 318 roomsize \$1;
#X msg 211 352 damping \$1;
#X msg 211 374 width \$1;
#X msg 211 396 wet \$1;
#X msg 77 378 dry \$1;
#X msg 77 400 print;
#X msg 77 422 freeze \$1;
#X msg 77 444 bypass \$1;
#X msg 217 283 1;
#X obj 491 306 vsl 15 40 0 1 0 0 empty empty BUFFALO 0 -9 0 10 -262144
-1 -1 0 1;
#X obj 491 353 *~;
#X obj 444 368 vsl 15 40 0 1 0 0 empty empty BUFFALO 0 -9 0 10 -262144
-1 -1 0 1;
#X obj 444 415 *~;
#X msg 162 320 0.9;
#N canvas 393 33 627 226 player 1;
#X obj 167 151 readsf~;
#X obj 206 87 openpanel;
#X msg 206 109 set open \$1;
#X msg 206 134 open /Users/vincentmartial/Desktop/az-rec/rec-archet.aif
;
#X msg 104 115 start;
#X msg 111 133 stop;
#X obj 206 68 bng 15 250 50 0 empty empty empty 17 7 0 10 -262144 -1
-1;
#X obj 59 117 t b b;
#X msg 219 163 open /Users/vincentmartial/Desktop/az-rec/rec-archet.aif
;
#X obj 59 168 spigot;
#X obj 92 149 tgl 15 0 empty empty empty 17 7 0 10 -262144 -1 -1 0
1;
#X obj 167 187 s~ reader;
#X obj 59 87 r E;
#X msg 37 132 1;
#X obj 137 77 r stop;
#X connect 0 0 11 0;
#X connect 0 1 9 0;
#X connect 1 0 2 0;
#X connect 2 0 3 0;
#X connect 3 0 0 0;
#X connect 4 0 0 0;
#X connect 5 0 0 0;
#X connect 6 0 1 0;
#X connect 7 0 4 0;
#X connect 7 1 3 0;
#X connect 9 0 7 0;
#X connect 10 0 9 1;
#X connect 12 0 7 0;
#X connect 12 0 13 0;
#X connect 13 0 10 0;
#X connect 14 0 5 0;
#X restore 938 81 pd player;
#X connect 1 0 2 0;
#X connect 2 0 4 0;
#X connect 3 0 2 0;
#X connect 5 0 1 0;
#X connect 6 0 1 0;
#X connect 7 0 6 0;
#X connect 7 1 1 0;
#X connect 7 2 5 0;
#X connect 8 0 7 0;
#X connect 9 0 8 0;
#X connect 10 0 12 0;
#X connect 12 0 9 0;
#X connect 12 0 13 0;
#X connect 14 0 11 0;
#X connect 16 0 17 1;
#X connect 17 0 15 1;
#X connect 18 0 19 1;
#X connect 19 0 15 2;
#X connect 20 0 21 1;
#X connect 21 0 15 3;
#X connect 22 0 23 1;
#X connect 23 0 15 4;
#X connect 24 0 25 1;
#X connect 25 0 15 5;
#X connect 26 0 27 1;
#X connect 27 0 15 6;
#X connect 28 0 29 1;
#X connect 29 0 15 7;
#X connect 30 0 31 1;
#X connect 31 0 15 8;
#X connect 32 0 33 1;
#X connect 33 0 21 0;
#X connect 33 0 58 0;
#X connect 33 0 17 0;
#X connect 33 0 25 0;
#X connect 33 0 19 0;
#X connect 33 0 27 0;
#X connect 33 0 23 0;
#X connect 33 0 72 0;
#X connect 33 0 72 1;
#X connect 36 0 14 0;
#X connect 37 0 14 0;
#X connect 38 0 14 0;
#X connect 39 0 14 0;
#X connect 40 0 14 0;
#X connect 41 0 47 0;
#X connect 41 1 44 0;
#X connect 42 0 41 0;
#X connect 44 0 14 0;
#X connect 45 0 46 0;
#X connect 46 0 42 0;
#X connect 47 0 14 0;
#X connect 48 0 55 0;
#X connect 49 0 48 0;
#X connect 50 0 49 0;
#X connect 51 0 50 0;
#X connect 52 0 36 0;
#X connect 52 1 51 0;
#X connect 53 0 52 0;
#X connect 54 0 14 0;
#X connect 55 0 60 0;
#X connect 55 1 62 0;
#X connect 55 2 54 0;
#X connect 55 3 54 0;
#X connect 55 4 54 0;
#X connect 56 0 33 0;
#X connect 57 0 58 1;
#X connect 58 0 15 0;
#X connect 59 0 14 0;
#X connect 60 0 14 0;
#X connect 61 0 49 1;
#X connect 62 0 14 0;
#X connect 63 0 64 0;
#X connect 64 0 69 0;
#X connect 65 0 14 0;
#X connect 66 0 14 0;
#X connect 67 0 64 1;
#X connect 68 0 78 0;
#X connect 68 1 71 0;
#X connect 69 0 70 0;
#X connect 70 0 68 0;
#X connect 70 1 65 0;
#X connect 71 0 65 0;
#X connect 72 0 90 0;
#X connect 72 1 92 0;
#X connect 73 0 63 0;
#X connect 74 0 75 0;
#X connect 74 1 73 0;
#X connect 75 0 14 0;
#X connect 76 0 74 0;
#X connect 77 0 2 0;
#X connect 78 0 14 0;
#X connect 79 0 14 0;
#X connect 80 0 72 0;
#X connect 81 0 72 0;
#X connect 82 0 72 0;
#X connect 83 0 72 0;
#X connect 88 0 80 0;
#X connect 88 0 81 0;
#X connect 88 0 82 0;
#X connect 88 0 83 0;
#X connect 89 0 90 1;
#X connect 90 0 15 5;
#X connect 90 0 15 2;
#X connect 91 0 92 1;
#X connect 92 0 15 6;
#X connect 92 0 15 2;
#X connect 93 0 83 0;
